<?xml version="1.0"?>
<svg xmlns="http://www.w3.org/2000/svg" height="512px" viewBox="-24 0 512 512" width="512px">
    <path d="m355.921875 80.328125c-12.882813 0-23.351563 10.480469-23.351563 23.351563 0 12.878906 10.46875 23.351562 23.351563 23.351562 12.867187 0 23.347656-10.472656 23.347656-23.351562 0-12.871094-10.480469-23.351563-23.347656-23.351563zm0 0"
          fill="#91DC5A"/>
    <path d="m399.671875 345.789062h-335.683594c-18.738281 0-33.988281-15.25-33.988281-34 0-18.738281 15.25-33.988281 33.988281-33.988281h292.3125l70.417969-95.332031c17.332031-23.628906 32.882812-47.4375 32.882812-78.789062 0-56.96875-46.191406-103.351563-103.082031-103.679688h-.621093c-57.160157 0-103.667969 46.511719-103.667969 103.679688 0 31.351562 15.558593 55.160156 32.890625 78.789062l47.898437 65.332031h-269.03125c-35.289062 0-63.988281 28.699219-63.988281 63.988281 0 35.289063 28.699219 64 63.988281 64h335.683594c19.167969 0 34.757813 15.589844 34.757813 34.75 0 19.171876-15.589844 34.761719-34.757813 34.761719h-298.492187c-6.441407-21.222656-26.191407-36.699219-49.480469-36.699219-28.507813 0-51.699219 23.1875-51.699219 51.699219 0 28.507813 23.191406 51.699219 51.699219 51.699219 23.289062 0 43.039062-15.480469 49.480469-36.699219h298.492187c35.707031 0 64.757813-29.050781 64.757813-64.761719 0-35.699218-29.050782-64.75-64.757813-64.75zm-43.75-188.757812c-29.421875 0-53.351563-23.929688-53.351563-53.351562 0-29.410157 23.929688-53.351563 53.351563-53.351563 29.40625 0 53.347656 23.941406 53.347656 53.351563 0 29.421874-23.941406 53.351562-53.347656 53.351562zm0 0"
          fill="#91DC5A"/>
</svg>
